<mxfile host="app.diagrams.net" modified="2021-03-29T14:08:04.197Z" agent="5.0 (Windows NT 10.0; Win64; x64) AppleWebKit/537.36 (KHTML, like Gecko) Chrome/89.0.4389.90 Safari/537.36" etag="-d_rsXY-rqYTMTu7tFLr" version="14.5.3" type="github">
  <diagram id="YLzq-GwA3vwfa9VQBC1T" name="第 1 页">
    <mxGraphModel dx="2249" dy="794" grid="1" gridSize="10" guides="1" tooltips="1" connect="1" arrows="1" fold="1" page="1" pageScale="1" pageWidth="827" pageHeight="1169" math="0" shadow="0">
      <root>
        <mxCell id="0" />
        <mxCell id="1" parent="0" />
        <mxCell id="qulF5nuhpRlrCJp3O_sG-1" value="打卡信息" style="rounded=0;whiteSpace=wrap;html=1;" vertex="1" parent="1">
          <mxGeometry x="540" y="220" width="80" height="40" as="geometry" />
        </mxCell>
        <mxCell id="qulF5nuhpRlrCJp3O_sG-3" value="学生" style="rounded=0;whiteSpace=wrap;html=1;" vertex="1" parent="1">
          <mxGeometry x="150" y="220" width="90" height="40" as="geometry" />
        </mxCell>
        <mxCell id="qulF5nuhpRlrCJp3O_sG-6" value="身份" style="ellipse;whiteSpace=wrap;html=1;" vertex="1" parent="1">
          <mxGeometry x="150" y="130" width="90" height="40" as="geometry" />
        </mxCell>
        <mxCell id="qulF5nuhpRlrCJp3O_sG-7" value="班级id" style="ellipse;whiteSpace=wrap;html=1;" vertex="1" parent="1">
          <mxGeometry x="-10" y="260" width="90" height="40" as="geometry" />
        </mxCell>
        <mxCell id="qulF5nuhpRlrCJp3O_sG-8" value="用户id" style="ellipse;whiteSpace=wrap;html=1;" vertex="1" parent="1">
          <mxGeometry x="50" y="350" width="70" height="40" as="geometry" />
        </mxCell>
        <mxCell id="qulF5nuhpRlrCJp3O_sG-10" value="教师id" style="ellipse;whiteSpace=wrap;html=1;" vertex="1" parent="1">
          <mxGeometry x="10" y="180" width="90" height="40" as="geometry" />
        </mxCell>
        <mxCell id="qulF5nuhpRlrCJp3O_sG-11" value="" style="endArrow=none;html=1;entryX=0.643;entryY=-0.05;entryDx=0;entryDy=0;exitX=0.5;exitY=1;exitDx=0;exitDy=0;entryPerimeter=0;" edge="1" parent="1" source="qulF5nuhpRlrCJp3O_sG-3" target="qulF5nuhpRlrCJp3O_sG-8">
          <mxGeometry width="50" height="50" relative="1" as="geometry">
            <mxPoint x="150" y="225" as="sourcePoint" />
            <mxPoint x="140" y="350" as="targetPoint" />
          </mxGeometry>
        </mxCell>
        <mxCell id="qulF5nuhpRlrCJp3O_sG-12" value="" style="endArrow=none;html=1;entryX=1.044;entryY=0.325;entryDx=0;entryDy=0;entryPerimeter=0;" edge="1" parent="1" source="qulF5nuhpRlrCJp3O_sG-3" target="qulF5nuhpRlrCJp3O_sG-7">
          <mxGeometry width="50" height="50" relative="1" as="geometry">
            <mxPoint x="90" y="400" as="sourcePoint" />
            <mxPoint x="140" y="350" as="targetPoint" />
          </mxGeometry>
        </mxCell>
        <mxCell id="qulF5nuhpRlrCJp3O_sG-13" value="" style="endArrow=none;html=1;entryX=0.5;entryY=1;entryDx=0;entryDy=0;exitX=0.5;exitY=0;exitDx=0;exitDy=0;" edge="1" parent="1" source="qulF5nuhpRlrCJp3O_sG-3" target="qulF5nuhpRlrCJp3O_sG-6">
          <mxGeometry width="50" height="50" relative="1" as="geometry">
            <mxPoint x="90" y="400" as="sourcePoint" />
            <mxPoint x="140" y="350" as="targetPoint" />
          </mxGeometry>
        </mxCell>
        <mxCell id="qulF5nuhpRlrCJp3O_sG-14" value="" style="endArrow=none;html=1;exitX=0;exitY=0;exitDx=0;exitDy=0;entryX=1;entryY=0.5;entryDx=0;entryDy=0;" edge="1" parent="1" source="qulF5nuhpRlrCJp3O_sG-3" target="qulF5nuhpRlrCJp3O_sG-10">
          <mxGeometry width="50" height="50" relative="1" as="geometry">
            <mxPoint x="90" y="400" as="sourcePoint" />
            <mxPoint x="100" y="210" as="targetPoint" />
          </mxGeometry>
        </mxCell>
        <mxCell id="qulF5nuhpRlrCJp3O_sG-19" value="&lt;span&gt;打卡&lt;/span&gt;" style="rhombus;whiteSpace=wrap;html=1;" vertex="1" parent="1">
          <mxGeometry x="350" y="210" width="90" height="60" as="geometry" />
        </mxCell>
        <mxCell id="qulF5nuhpRlrCJp3O_sG-20" value="" style="endArrow=none;html=1;" edge="1" parent="1" source="qulF5nuhpRlrCJp3O_sG-19" target="qulF5nuhpRlrCJp3O_sG-3">
          <mxGeometry width="50" height="50" relative="1" as="geometry">
            <mxPoint x="90" y="350" as="sourcePoint" />
            <mxPoint x="140" y="300" as="targetPoint" />
          </mxGeometry>
        </mxCell>
        <mxCell id="qulF5nuhpRlrCJp3O_sG-21" value="n" style="text;html=1;strokeColor=none;fillColor=none;align=center;verticalAlign=middle;whiteSpace=wrap;rounded=0;" vertex="1" parent="1">
          <mxGeometry x="290" y="260" width="40" height="20" as="geometry" />
        </mxCell>
        <mxCell id="qulF5nuhpRlrCJp3O_sG-23" value="" style="endArrow=none;html=1;" edge="1" parent="1" source="qulF5nuhpRlrCJp3O_sG-1">
          <mxGeometry width="50" height="50" relative="1" as="geometry">
            <mxPoint x="360" y="250" as="sourcePoint" />
            <mxPoint x="440" y="241" as="targetPoint" />
          </mxGeometry>
        </mxCell>
        <mxCell id="qulF5nuhpRlrCJp3O_sG-24" value="1" style="text;html=1;strokeColor=none;fillColor=none;align=center;verticalAlign=middle;whiteSpace=wrap;rounded=0;" vertex="1" parent="1">
          <mxGeometry x="440" y="250" width="40" height="20" as="geometry" />
        </mxCell>
        <mxCell id="qulF5nuhpRlrCJp3O_sG-26" value="所在地" style="ellipse;whiteSpace=wrap;html=1;" vertex="1" parent="1">
          <mxGeometry x="480" y="130" width="90" height="40" as="geometry" />
        </mxCell>
        <mxCell id="qulF5nuhpRlrCJp3O_sG-27" value="健康状况" style="ellipse;whiteSpace=wrap;html=1;" vertex="1" parent="1">
          <mxGeometry x="590" y="130" width="90" height="40" as="geometry" />
        </mxCell>
        <mxCell id="qulF5nuhpRlrCJp3O_sG-28" value="是否在校" style="ellipse;whiteSpace=wrap;html=1;" vertex="1" parent="1">
          <mxGeometry x="660" y="190" width="90" height="40" as="geometry" />
        </mxCell>
        <mxCell id="qulF5nuhpRlrCJp3O_sG-29" value="出行地点" style="ellipse;whiteSpace=wrap;html=1;" vertex="1" parent="1">
          <mxGeometry x="660" y="260" width="90" height="40" as="geometry" />
        </mxCell>
        <mxCell id="qulF5nuhpRlrCJp3O_sG-30" value="风险行为" style="ellipse;whiteSpace=wrap;html=1;" vertex="1" parent="1">
          <mxGeometry x="580" y="310" width="90" height="40" as="geometry" />
        </mxCell>
        <mxCell id="qulF5nuhpRlrCJp3O_sG-31" value="" style="endArrow=none;html=1;" edge="1" parent="1" source="qulF5nuhpRlrCJp3O_sG-30">
          <mxGeometry width="50" height="50" relative="1" as="geometry">
            <mxPoint x="530" y="310" as="sourcePoint" />
            <mxPoint x="580" y="260" as="targetPoint" />
          </mxGeometry>
        </mxCell>
        <mxCell id="qulF5nuhpRlrCJp3O_sG-32" value="" style="endArrow=none;html=1;entryX=1;entryY=1;entryDx=0;entryDy=0;" edge="1" parent="1" source="qulF5nuhpRlrCJp3O_sG-29" target="qulF5nuhpRlrCJp3O_sG-1">
          <mxGeometry width="50" height="50" relative="1" as="geometry">
            <mxPoint x="622.6375492446182" y="320.76952104718384" as="sourcePoint" />
            <mxPoint x="590" y="270" as="targetPoint" />
          </mxGeometry>
        </mxCell>
        <mxCell id="qulF5nuhpRlrCJp3O_sG-33" value="" style="endArrow=none;html=1;entryX=1;entryY=0.25;entryDx=0;entryDy=0;exitX=0.033;exitY=0.825;exitDx=0;exitDy=0;exitPerimeter=0;" edge="1" parent="1" source="qulF5nuhpRlrCJp3O_sG-28" target="qulF5nuhpRlrCJp3O_sG-1">
          <mxGeometry width="50" height="50" relative="1" as="geometry">
            <mxPoint x="632.6375492446182" y="330.76952104718384" as="sourcePoint" />
            <mxPoint x="600" y="280" as="targetPoint" />
          </mxGeometry>
        </mxCell>
        <mxCell id="qulF5nuhpRlrCJp3O_sG-34" value="" style="endArrow=none;html=1;entryX=0.75;entryY=0;entryDx=0;entryDy=0;exitX=0.5;exitY=1;exitDx=0;exitDy=0;" edge="1" parent="1" source="qulF5nuhpRlrCJp3O_sG-27" target="qulF5nuhpRlrCJp3O_sG-1">
          <mxGeometry width="50" height="50" relative="1" as="geometry">
            <mxPoint x="642.6375492446182" y="340.76952104718384" as="sourcePoint" />
            <mxPoint x="610" y="290" as="targetPoint" />
          </mxGeometry>
        </mxCell>
        <mxCell id="qulF5nuhpRlrCJp3O_sG-35" value="" style="endArrow=none;html=1;entryX=0.756;entryY=0.975;entryDx=0;entryDy=0;entryPerimeter=0;" edge="1" parent="1" target="qulF5nuhpRlrCJp3O_sG-26">
          <mxGeometry width="50" height="50" relative="1" as="geometry">
            <mxPoint x="580" y="220" as="sourcePoint" />
            <mxPoint x="620" y="300" as="targetPoint" />
          </mxGeometry>
        </mxCell>
        <mxCell id="qulF5nuhpRlrCJp3O_sG-36" value="请假" style="rhombus;whiteSpace=wrap;html=1;" vertex="1" parent="1">
          <mxGeometry x="220" y="390" width="80" height="50" as="geometry" />
        </mxCell>
        <mxCell id="qulF5nuhpRlrCJp3O_sG-37" value="" style="endArrow=none;html=1;entryX=0.75;entryY=1;entryDx=0;entryDy=0;exitX=0.5;exitY=0;exitDx=0;exitDy=0;" edge="1" parent="1" source="qulF5nuhpRlrCJp3O_sG-36" target="qulF5nuhpRlrCJp3O_sG-3">
          <mxGeometry width="50" height="50" relative="1" as="geometry">
            <mxPoint x="360" y="250" as="sourcePoint" />
            <mxPoint x="250" y="250" as="targetPoint" />
          </mxGeometry>
        </mxCell>
        <mxCell id="qulF5nuhpRlrCJp3O_sG-38" value="n" style="text;html=1;strokeColor=none;fillColor=none;align=center;verticalAlign=middle;whiteSpace=wrap;rounded=0;" vertex="1" parent="1">
          <mxGeometry x="200" y="330" width="40" height="20" as="geometry" />
        </mxCell>
        <mxCell id="qulF5nuhpRlrCJp3O_sG-39" value="请假记录" style="rounded=0;whiteSpace=wrap;html=1;" vertex="1" parent="1">
          <mxGeometry x="230" y="480" width="80" height="40" as="geometry" />
        </mxCell>
        <mxCell id="qulF5nuhpRlrCJp3O_sG-40" value="" style="endArrow=none;html=1;entryX=0.5;entryY=1;entryDx=0;entryDy=0;exitX=0.5;exitY=0;exitDx=0;exitDy=0;" edge="1" parent="1" source="qulF5nuhpRlrCJp3O_sG-39" target="qulF5nuhpRlrCJp3O_sG-36">
          <mxGeometry width="50" height="50" relative="1" as="geometry">
            <mxPoint x="270" y="470" as="sourcePoint" />
            <mxPoint x="227.5" y="270" as="targetPoint" />
          </mxGeometry>
        </mxCell>
        <mxCell id="qulF5nuhpRlrCJp3O_sG-42" value="学生id" style="ellipse;whiteSpace=wrap;html=1;" vertex="1" parent="1">
          <mxGeometry x="110" y="420" width="70" height="40" as="geometry" />
        </mxCell>
        <mxCell id="qulF5nuhpRlrCJp3O_sG-43" value="班主任id" style="ellipse;whiteSpace=wrap;html=1;" vertex="1" parent="1">
          <mxGeometry x="90" y="480" width="70" height="40" as="geometry" />
        </mxCell>
        <mxCell id="qulF5nuhpRlrCJp3O_sG-44" value="辅导员id" style="ellipse;whiteSpace=wrap;html=1;" vertex="1" parent="1">
          <mxGeometry x="90" y="530" width="70" height="40" as="geometry" />
        </mxCell>
        <mxCell id="qulF5nuhpRlrCJp3O_sG-45" value="请假时间" style="ellipse;whiteSpace=wrap;html=1;" vertex="1" parent="1">
          <mxGeometry x="100" y="585" width="70" height="40" as="geometry" />
        </mxCell>
        <mxCell id="qulF5nuhpRlrCJp3O_sG-46" value="结束时间&lt;span style=&quot;color: rgba(0 , 0 , 0 , 0) ; font-family: monospace ; font-size: 0px&quot;&gt;%3CmxGraphModel%3E%3Croot%3E%3CmxCell%20id%3D%220%22%2F%3E%3CmxCell%20id%3D%221%22%20parent%3D%220%22%2F%3E%3CmxCell%20id%3D%222%22%20value%3D%22%E8%AF%B7%E5%81%87%E6%97%B6%E9%97%B4%22%20style%3D%22ellipse%3BwhiteSpace%3Dwrap%3Bhtml%3D1%3B%22%20vertex%3D%221%22%20parent%3D%221%22%3E%3CmxGeometry%20x%3D%22280%22%20y%3D%22560%22%20width%3D%2270%22%20height%3D%2240%22%20as%3D%22geometry%22%2F%3E%3C%2FmxCell%3E%3C%2Froot%3E%3C%2FmxGraphModel%3E&lt;/span&gt;" style="ellipse;whiteSpace=wrap;html=1;" vertex="1" parent="1">
          <mxGeometry x="344" y="630" width="70" height="40" as="geometry" />
        </mxCell>
        <mxCell id="qulF5nuhpRlrCJp3O_sG-47" value="原因" style="ellipse;whiteSpace=wrap;html=1;" vertex="1" parent="1">
          <mxGeometry x="344" y="585" width="70" height="40" as="geometry" />
        </mxCell>
        <mxCell id="qulF5nuhpRlrCJp3O_sG-48" value="请假状态" style="ellipse;whiteSpace=wrap;html=1;" vertex="1" parent="1">
          <mxGeometry x="344" y="520" width="70" height="40" as="geometry" />
        </mxCell>
        <mxCell id="qulF5nuhpRlrCJp3O_sG-49" value="出行地点" style="ellipse;whiteSpace=wrap;html=1;" vertex="1" parent="1">
          <mxGeometry x="320" y="410" width="70" height="40" as="geometry" />
        </mxCell>
        <mxCell id="qulF5nuhpRlrCJp3O_sG-50" value="" style="endArrow=none;html=1;entryX=1;entryY=0.5;entryDx=0;entryDy=0;exitX=0;exitY=0;exitDx=0;exitDy=0;" edge="1" parent="1" source="qulF5nuhpRlrCJp3O_sG-39" target="qulF5nuhpRlrCJp3O_sG-42">
          <mxGeometry width="50" height="50" relative="1" as="geometry">
            <mxPoint x="280" y="490" as="sourcePoint" />
            <mxPoint x="270" y="450" as="targetPoint" />
          </mxGeometry>
        </mxCell>
        <mxCell id="qulF5nuhpRlrCJp3O_sG-51" value="" style="endArrow=none;html=1;entryX=1;entryY=0.5;entryDx=0;entryDy=0;" edge="1" parent="1" target="qulF5nuhpRlrCJp3O_sG-43">
          <mxGeometry width="50" height="50" relative="1" as="geometry">
            <mxPoint x="230" y="500" as="sourcePoint" />
            <mxPoint x="280" y="460" as="targetPoint" />
          </mxGeometry>
        </mxCell>
        <mxCell id="qulF5nuhpRlrCJp3O_sG-52" value="" style="endArrow=none;html=1;entryX=1.043;entryY=0.35;entryDx=0;entryDy=0;exitX=0.25;exitY=1;exitDx=0;exitDy=0;entryPerimeter=0;" edge="1" parent="1" source="qulF5nuhpRlrCJp3O_sG-39" target="qulF5nuhpRlrCJp3O_sG-44">
          <mxGeometry width="50" height="50" relative="1" as="geometry">
            <mxPoint x="300" y="510" as="sourcePoint" />
            <mxPoint x="290" y="470" as="targetPoint" />
          </mxGeometry>
        </mxCell>
        <mxCell id="qulF5nuhpRlrCJp3O_sG-53" value="" style="endArrow=none;html=1;exitX=0.5;exitY=1;exitDx=0;exitDy=0;entryX=1;entryY=0.5;entryDx=0;entryDy=0;" edge="1" parent="1" source="qulF5nuhpRlrCJp3O_sG-39" target="qulF5nuhpRlrCJp3O_sG-45">
          <mxGeometry width="50" height="50" relative="1" as="geometry">
            <mxPoint x="310" y="520" as="sourcePoint" />
            <mxPoint x="180" y="600" as="targetPoint" />
          </mxGeometry>
        </mxCell>
        <mxCell id="qulF5nuhpRlrCJp3O_sG-54" value="" style="endArrow=none;html=1;entryX=0.5;entryY=1;entryDx=0;entryDy=0;exitX=0;exitY=1;exitDx=0;exitDy=0;" edge="1" parent="1" source="qulF5nuhpRlrCJp3O_sG-49">
          <mxGeometry width="50" height="50" relative="1" as="geometry">
            <mxPoint x="320" y="530" as="sourcePoint" />
            <mxPoint x="310" y="490" as="targetPoint" />
          </mxGeometry>
        </mxCell>
        <mxCell id="qulF5nuhpRlrCJp3O_sG-55" value="" style="endArrow=none;html=1;entryX=1;entryY=0.5;entryDx=0;entryDy=0;exitX=0;exitY=0;exitDx=0;exitDy=0;" edge="1" parent="1" source="qulF5nuhpRlrCJp3O_sG-48" target="qulF5nuhpRlrCJp3O_sG-39">
          <mxGeometry width="50" height="50" relative="1" as="geometry">
            <mxPoint x="340" y="530" as="sourcePoint" />
            <mxPoint x="320" y="500" as="targetPoint" />
          </mxGeometry>
        </mxCell>
        <mxCell id="qulF5nuhpRlrCJp3O_sG-56" value="" style="endArrow=none;html=1;entryX=1;entryY=1;entryDx=0;entryDy=0;exitX=0;exitY=0;exitDx=0;exitDy=0;" edge="1" parent="1" source="qulF5nuhpRlrCJp3O_sG-47" target="qulF5nuhpRlrCJp3O_sG-39">
          <mxGeometry width="50" height="50" relative="1" as="geometry">
            <mxPoint x="340" y="550" as="sourcePoint" />
            <mxPoint x="330" y="510" as="targetPoint" />
          </mxGeometry>
        </mxCell>
        <mxCell id="qulF5nuhpRlrCJp3O_sG-57" value="" style="endArrow=none;html=1;entryX=0.75;entryY=1;entryDx=0;entryDy=0;exitX=0;exitY=0.5;exitDx=0;exitDy=0;" edge="1" parent="1" source="qulF5nuhpRlrCJp3O_sG-46" target="qulF5nuhpRlrCJp3O_sG-39">
          <mxGeometry width="50" height="50" relative="1" as="geometry">
            <mxPoint x="350" y="560" as="sourcePoint" />
            <mxPoint x="340" y="520" as="targetPoint" />
          </mxGeometry>
        </mxCell>
        <mxCell id="qulF5nuhpRlrCJp3O_sG-58" value="审批" style="rhombus;whiteSpace=wrap;html=1;" vertex="1" parent="1">
          <mxGeometry x="470" y="470" width="80" height="60" as="geometry" />
        </mxCell>
        <mxCell id="qulF5nuhpRlrCJp3O_sG-59" value="" style="endArrow=none;html=1;entryX=0;entryY=0.5;entryDx=0;entryDy=0;exitX=1;exitY=0.5;exitDx=0;exitDy=0;" edge="1" parent="1" source="qulF5nuhpRlrCJp3O_sG-39" target="qulF5nuhpRlrCJp3O_sG-58">
          <mxGeometry width="50" height="50" relative="1" as="geometry">
            <mxPoint x="390" y="520" as="sourcePoint" />
            <mxPoint x="440" y="470" as="targetPoint" />
          </mxGeometry>
        </mxCell>
        <mxCell id="qulF5nuhpRlrCJp3O_sG-61" value="班主任" style="rounded=0;whiteSpace=wrap;html=1;" vertex="1" parent="1">
          <mxGeometry x="610" y="480" width="80" height="40" as="geometry" />
        </mxCell>
        <mxCell id="qulF5nuhpRlrCJp3O_sG-63" value="" style="endArrow=none;html=1;exitX=1;exitY=0.5;exitDx=0;exitDy=0;" edge="1" parent="1" source="qulF5nuhpRlrCJp3O_sG-58" target="qulF5nuhpRlrCJp3O_sG-61">
          <mxGeometry width="50" height="50" relative="1" as="geometry">
            <mxPoint x="390" y="520" as="sourcePoint" />
            <mxPoint x="440" y="470" as="targetPoint" />
          </mxGeometry>
        </mxCell>
        <mxCell id="qulF5nuhpRlrCJp3O_sG-64" value="1" style="text;html=1;strokeColor=none;fillColor=none;align=center;verticalAlign=middle;whiteSpace=wrap;rounded=0;" vertex="1" parent="1">
          <mxGeometry x="420" y="470" width="40" height="20" as="geometry" />
        </mxCell>
        <mxCell id="qulF5nuhpRlrCJp3O_sG-66" value="n" style="text;html=1;strokeColor=none;fillColor=none;align=center;verticalAlign=middle;whiteSpace=wrap;rounded=0;" vertex="1" parent="1">
          <mxGeometry x="550" y="470" width="40" height="20" as="geometry" />
        </mxCell>
        <mxCell id="qulF5nuhpRlrCJp3O_sG-68" value="审批" style="rhombus;whiteSpace=wrap;html=1;" vertex="1" parent="1">
          <mxGeometry x="230" y="640" width="80" height="60" as="geometry" />
        </mxCell>
        <mxCell id="qulF5nuhpRlrCJp3O_sG-69" value="辅导员" style="rounded=0;whiteSpace=wrap;html=1;" vertex="1" parent="1">
          <mxGeometry x="230" y="740" width="80" height="40" as="geometry" />
        </mxCell>
        <mxCell id="qulF5nuhpRlrCJp3O_sG-70" value="" style="endArrow=none;html=1;exitX=0.5;exitY=1;exitDx=0;exitDy=0;" edge="1" parent="1" source="qulF5nuhpRlrCJp3O_sG-68" target="qulF5nuhpRlrCJp3O_sG-69">
          <mxGeometry width="50" height="50" relative="1" as="geometry">
            <mxPoint x="160" y="750" as="sourcePoint" />
            <mxPoint x="210" y="700" as="targetPoint" />
          </mxGeometry>
        </mxCell>
        <mxCell id="qulF5nuhpRlrCJp3O_sG-71" value="1" style="text;html=1;strokeColor=none;fillColor=none;align=center;verticalAlign=middle;whiteSpace=wrap;rounded=0;" vertex="1" parent="1">
          <mxGeometry x="230" y="625" width="40" height="20" as="geometry" />
        </mxCell>
        <mxCell id="qulF5nuhpRlrCJp3O_sG-72" value="n" style="text;html=1;strokeColor=none;fillColor=none;align=center;verticalAlign=middle;whiteSpace=wrap;rounded=0;" vertex="1" parent="1">
          <mxGeometry x="220" y="700" width="40" height="20" as="geometry" />
        </mxCell>
        <mxCell id="qulF5nuhpRlrCJp3O_sG-73" value="" style="endArrow=none;html=1;entryX=0.5;entryY=0;entryDx=0;entryDy=0;" edge="1" parent="1" source="qulF5nuhpRlrCJp3O_sG-39" target="qulF5nuhpRlrCJp3O_sG-68">
          <mxGeometry width="50" height="50" relative="1" as="geometry">
            <mxPoint x="280" y="730" as="sourcePoint" />
            <mxPoint x="280" y="840" as="targetPoint" />
          </mxGeometry>
        </mxCell>
      </root>
    </mxGraphModel>
  </diagram>
</mxfile>
